<?xml version="1.0" standalone="no"?>
<!DOCTYPE svg PUBLIC "-//W3C//DTD SVG 20010904//EN"
 "http://www.w3.org/TR/2001/REC-SVG-20010904/DTD/svg10.dtd">
<svg version="1.0" xmlns="http://www.w3.org/2000/svg"
 width="257.000000pt" height="257.000000pt" viewBox="0 0 257.000000 257.000000"
 preserveAspectRatio="xMidYMid meet">
<metadata>
Created by potrace 1.11, written by Peter Selinger 2001-2013
</metadata>
<g transform="translate(0.000000,257.000000) scale(0.100000,-0.100000)"
fill="#000000" stroke="none">
<path d="M927 2534 c-4 -21 -7 -89 -7 -150 0 -109 1 -111 25 -122 39 -18 35
-64 -9 -91 -54 -34 -128 -121 -192 -229 -1 -2 -32 6 -70 17 -77 23 -75 12 4
-14 51 -16 60 -27 44 -53 -7 -10 -23 -9 -81 3 -76 16 -128 19 -76 5 17 -5 56
-14 87 -20 l58 -11 -13 -32 c-13 -32 -14 -32 -98 -38 l-84 -5 81 -2 81 -2 -16
-57 c-9 -32 -48 -119 -88 -193 -149 -283 -259 -545 -264 -632 -5 -70 0 -125 9
-110 12 18 42 4 35 -16 -6 -15 -4 -15 14 0 22 20 63 24 63 7 0 -6 12 -1 26 10
15 11 30 19 34 16 4 -2 10 -51 13 -107 9 -172 73 -377 157 -507 45 -69 115
-120 202 -147 31 -9 54 -22 51 -27 -4 -6 12 -7 42 -3 33 5 45 4 40 -3 -4 -8
10 -10 47 -6 29 3 96 10 149 15 59 6 116 6 145 1 65 -12 316 -12 309 -1 -3 5
14 14 37 20 67 18 136 60 178 108 98 110 185 372 195 581 3 67 5 76 22 73 10
-2 24 -12 32 -23 16 -23 31 -25 31 -4 0 22 30 18 58 -7 l25 -23 -12 23 c-10
18 -9 23 4 28 9 4 21 -1 30 -12 11 -16 12 -9 8 51 -9 125 -82 313 -253 651
-53 105 -102 212 -108 236 -7 25 -14 53 -18 61 -5 14 8 17 98 20 l103 3 -102
2 c-102 2 -102 2 -118 31 -8 17 -12 32 -7 34 4 2 49 12 100 22 51 10 91 20 88
22 -3 3 -48 -3 -101 -13 -84 -16 -98 -16 -106 -3 -15 23 -6 31 61 51 36 11 69
24 74 29 5 5 -26 -2 -70 -16 -43 -13 -81 -21 -85 -17 -3 4 -27 37 -53 74 -25
37 -69 87 -96 110 -42 36 -50 48 -50 78 0 27 5 38 23 45 21 10 22 14 21 148
-2 169 -12 187 -53 96 -16 -35 -39 -94 -52 -131 -20 -58 -22 -71 -11 -89 19
-30 6 -63 -21 -55 -121 35 -145 38 -267 33 -80 -3 -141 -10 -168 -20 -39 -15
-43 -15 -49 0 -3 8 -1 24 5 34 7 10 12 24 12 30 0 21 -81 219 -99 240 l-18 22
-6 -39z m111 -477 c61 -68 1 -179 -81 -148 -26 10 -57 56 -57 85 0 31 25 69
54 81 35 15 58 10 84 -18z m585 21 c34 -18 46 -39 47 -81 0 -87 -107 -121
-145 -46 -23 43 -18 77 14 110 32 31 50 35 84 17z m-38 -272 c28 -8 59 -22 70
-30 18 -13 17 -15 -25 -26 -120 -33 -258 -50 -394 -50 -193 1 -358 32 -328 62
16 16 139 47 216 54 39 3 73 8 76 11 12 12 337 -5 385 -21z m-31 -201 c247
-70 388 -287 425 -657 23 -228 -34 -421 -174 -591 -112 -135 -287 -244 -444
-274 -79 -16 -90 -16 -165 0 -159 32 -338 145 -448 282 -134 165 -190 361
-167 580 39 375 182 597 425 659 93 23 108 24 304 21 135 -2 201 -8 244 -20z"/>
<path d="M971 2012 c-8 -16 -7 -25 8 -43 16 -20 21 -22 35 -10 24 20 17 65
-11 69 -14 2 -26 -4 -32 -16z"/>
<path d="M1552 2028 c-25 -25 -6 -68 30 -68 22 0 35 45 18 65 -15 18 -32 19
-48 3z"/>
<path d="M1098 1548 c-21 -18 -48 -60 -48 -75 0 -10 8 -10 37 2 33 14 41 14
75 0 29 -11 38 -12 38 -2 0 27 -52 87 -75 87 -6 0 -18 -6 -27 -12z"/>
<path d="M1402 1544 c-24 -17 -57 -72 -48 -82 4 -3 22 2 42 11 31 15 38 16 64
2 39 -20 49 -19 43 5 -6 23 -56 80 -70 80 -5 0 -19 -7 -31 -16z"/>
<path d="M868 1493 c-9 -10 -21 -29 -28 -42 -11 -21 -10 -23 5 -17 40 15 65
17 85 6 27 -15 35 -8 21 18 -27 51 -58 64 -83 35z"/>
<path d="M1638 1498 c-9 -7 -24 -26 -34 -42 l-19 -30 25 8 c33 11 60 12 88 2
29 -10 28 5 -4 43 -29 35 -34 36 -56 19z"/>
<path d="M1230 1288 c-43 -60 -40 -70 15 -51 41 14 49 14 85 -1 38 -15 40 -15
40 4 0 10 -14 35 -31 55 -42 48 -71 46 -109 -7z"/>
<path d="M944 1270 c-15 -22 -25 -43 -22 -46 3 -3 21 1 39 9 29 12 39 12 68 0
40 -17 47 -13 31 19 -37 71 -77 77 -116 18z"/>
<path d="M1548 1283 c-21 -24 -41 -64 -35 -69 3 -3 20 1 38 9 29 12 39 12 68
0 18 -8 36 -12 39 -9 3 3 -7 24 -22 46 -29 44 -62 53 -88 23z"/>
<path d="M741 1221 c-26 -36 -27 -56 -3 -45 21 9 59 9 91 -1 22 -7 23 -7 11
16 -34 65 -67 75 -99 30z"/>
<path d="M1768 1223 c-9 -10 -21 -29 -28 -42 -12 -23 -11 -23 11 -16 32 10 70
10 92 1 24 -11 22 14 -4 48 -24 30 -49 33 -71 9z"/>
</g>
</svg>
